<svg xmlns="http://www.w3.org/2000/svg" viewBox="0 0 820 840"><defs>
    <linearGradient id="hsArc" x1="0" y1="0" x2="0" y2="1">
      <stop offset="0" stop-color="#33272E"/><stop offset="1" stop-color="#1C141B"/>
    </linearGradient>
    <linearGradient id="hsCup" x1="0" y1="0" x2="1" y2="1">
      <stop offset="0" stop-color="#33262D"/><stop offset="1" stop-color="#171019"/>
    </linearGradient>
    <filter id="hsGlow" x="-60%" y="-60%" width="220%" height="220%">
      <feGaussianBlur stdDeviation="12"/>
    </filter></defs><path d="M186 400 C 186 168 292 74 410 74 C 528 74 634 168 634 400" fill="none" stroke="url(#hsArc)" stroke-width="52" stroke-linecap="round"/><path d="M186 400 C 186 168 292 74 410 74 C 528 74 634 168 634 400" fill="none" stroke="#FF7A1F" stroke-width="5" opacity=".75"/><path d="M250 340 C 252 208 322 130 410 130 C 498 130 568 208 570 340" fill="none" stroke="#3B2A20" stroke-width="26" stroke-linecap="round" opacity=".95"/><path d="M192 392 L 192 452" stroke="#221A21" stroke-width="16"/><path d="M192 392 L 192 452" stroke="#FF7A1F" stroke-width="4" opacity=".5"/><ellipse cx="192" cy="580" rx="102" ry="128" fill="url(#hsCup)" stroke="#FF7A1F" stroke-opacity=".2" stroke-width="2.5"/><ellipse cx="192" cy="580" rx="72" ry="94" fill="none" stroke="#FF7A1F" stroke-width="6" opacity=".32" filter="url(#hsGlow)"/><ellipse cx="192" cy="580" rx="72" ry="94" fill="none" stroke="#FF8C33" stroke-width="5" opacity=".9"/><path d="M192 552 l 17 26 -17 26 -17 -26 Z" fill="#FFA45C" opacity=".9"/><path d="M134 492 C 122 530 122 600 140 648" stroke="#FFFFFF" stroke-opacity=".08" stroke-width="14" fill="none" stroke-linecap="round"/><path d="M628 392 L 628 452" stroke="#221A21" stroke-width="16"/><path d="M628 392 L 628 452" stroke="#FF7A1F" stroke-width="4" opacity=".5"/><ellipse cx="628" cy="580" rx="102" ry="128" fill="url(#hsCup)" stroke="#FF7A1F" stroke-opacity=".2" stroke-width="2.5"/><ellipse cx="628" cy="580" rx="72" ry="94" fill="none" stroke="#FF7A1F" stroke-width="6" opacity=".32" filter="url(#hsGlow)"/><ellipse cx="628" cy="580" rx="72" ry="94" fill="none" stroke="#FF8C33" stroke-width="5" opacity=".9"/><path d="M628 552 l 17 26 -17 26 -17 -26 Z" fill="#FFA45C" opacity=".9"/><path d="M570 492 C 558 530 558 600 576 648" stroke="#FFFFFF" stroke-opacity=".08" stroke-width="14" fill="none" stroke-linecap="round"/><path d="M192 706 C 168 760 224 796 292 788" fill="none" stroke="#221A21" stroke-width="11" stroke-linecap="round"/><ellipse cx="308" cy="786" rx="26" ry="17" fill="#FF6F14"/><ellipse cx="308" cy="786" rx="26" ry="17" fill="url(#hsCup)" opacity=".35"/></svg>