<svg xmlns="http://www.w3.org/2000/svg" viewBox="0 0 640 800"><defs>
    <linearGradient id="msBody" x1="0" y1="0" x2="1" y2="1">
      <stop offset="0" stop-color="#2E3542"/><stop offset=".55" stop-color="#1A1F29"/><stop offset="1" stop-color="#12151D"/>
    </linearGradient>
    <linearGradient id="msLed" x1="0" y1="0" x2="0" y2="1">
      <stop offset="0" stop-color="#8AF0FF"/><stop offset="1" stop-color="#0891B2"/>
    </linearGradient>
    <filter id="msGlow" x="-60%" y="-60%" width="220%" height="220%">
      <feGaussianBlur stdDeviation="14"/>
    </filter></defs><path d="M320 64 C 436 64 512 148 512 272 C 512 414 480 566 408 652 C 378 690 352 712 320 712 C 288 712 262 690 232 652 C 160 566 128 414 128 272 C 128 148 204 64 320 64 Z" fill="url(#msBody)" stroke="#22D3EE" stroke-opacity=".22" stroke-width="2.5"/><path d="M320 64 C 436 64 512 148 512 272 C 512 414 480 566 408 652 C 378 690 352 712 320 712 C 288 712 262 690 232 652 C 160 566 128 414 128 272 C 128 148 204 64 320 64 Z" fill="#000" opacity=".22" clip-path="none" style="clip-path: inset(0 0 0 50%);" /><path d="M212 128 C 168 178 150 240 150 300" stroke="#FFFFFF" stroke-opacity=".14" stroke-width="14" fill="none" stroke-linecap="round"/><path d="M320 66 L 320 300" stroke="#0C0F15" stroke-width="4"/><path d="M320 70 C 258 82 196 132 172 236" stroke="#0C0F15" stroke-width="4" fill="none"/><path d="M320 70 C 382 82 444 132 468 236" stroke="#0C0F15" stroke-width="4" fill="none"/><rect x="322" y="112" width="30" height="118" rx="15" fill="url(#msLed)" opacity=".35"/><rect x="305" y="108" width="30" height="120" rx="15" fill="url(#msLed)"/><rect x="308" y="122" width="24" height="4" rx="2" fill="#063742"/><rect x="308" y="140" width="24" height="4" rx="2" fill="#063742"/><rect x="308" y="158" width="24" height="4" rx="2" fill="#063742"/><rect x="308" y="176" width="24" height="4" rx="2" fill="#063742"/><rect x="308" y="194" width="24" height="4" rx="2" fill="#063742"/><rect x="308" y="212" width="24" height="4" rx="2" fill="#063742"/><circle cx="320" cy="262" r="9" fill="#22D3EE" opacity=".28" filter="url(#msGlow)"/><circle cx="320" cy="262" r="5" fill="#8AF0FF"/><path d="M198 600 C 240 668 282 700 320 700 C 358 700 400 668 442 600" stroke="#22D3EE" stroke-width="16" fill="none" opacity=".32" filter="url(#msGlow)"/><path d="M198 600 C 240 668 282 700 320 700 C 358 700 400 668 442 600" stroke="#5EEAFF" stroke-width="6" fill="none" opacity=".9"/><path d="M320 470 l 16 22 -16 22 -16 -22 Z" fill="#22D3EE" opacity=".85"/></svg>